<?xml version="1.0" encoding="utf-8"?>
<!-- Generator: Adobe Illustrator 16.0.0, SVG Export Plug-In . SVG Version: 6.00 Build 0)  -->
<!DOCTYPE svg PUBLIC "-//W3C//DTD SVG 1.1//EN" "http://www.w3.org/Graphics/SVG/1.1/DTD/svg11.dtd">
<svg version="1.1" id="Layer_1" xmlns="http://www.w3.org/2000/svg" xmlns:xlink="http://www.w3.org/1999/xlink" x="0px" y="0px"
	 width="147.83px" height="74.139px" viewBox="0 0 147.83 74.139" enable-background="new 0 0 147.83 74.139" xml:space="preserve">
<g>
	<path fill="#FFFFFF" d="M90.909,44.072c0.783-0.85,1.496-1.8,2.137-2.85c0.642-1.05,1.188-2.058,1.638-3.025
		c0.083-0.183,0.016-0.404-0.2-0.663c-0.217-0.258-0.512-0.491-0.887-0.7s-0.805-0.367-1.288-0.475
		c-0.484-0.108-0.942-0.113-1.375-0.013c-0.3,0.067-0.663,0.263-1.087,0.587c-0.425,0.325-0.871,0.734-1.338,1.225
		c-0.467,0.492-0.929,1.038-1.387,1.638c-0.458,0.6-0.879,1.212-1.263,1.837s-0.712,1.237-0.987,1.837s-0.45,1.138-0.525,1.613
		c-0.075,0.475-0.034,0.867,0.125,1.175c0.158,0.309,0.471,0.479,0.938,0.513c1.033,0.083,2.012-0.133,2.938-0.65
		C89.271,45.606,90.125,44.922,90.909,44.072z"/>
	<path fill="#FFFFFF" d="M145.231,48.768c-0.81-2.09-1.646-4.171-2.464-6.259c-0.269,0.392-0.559,0.814-0.885,1.288
		c-0.582,0.85-1.25,1.75-2,2.7c-0.75,0.95-1.578,1.9-2.486,2.85c-0.908,0.95-1.889,1.8-2.938,2.55
		c-1.051,0.75-2.158,1.362-3.326,1.837c-1.166,0.475-2.391,0.712-3.674,0.712c-0.867,0-1.555-0.25-2.062-0.75
		c-0.51-0.5-0.896-1.142-1.162-1.925c-0.268-0.783-0.443-1.65-0.525-2.6c-0.084-0.95-0.125-1.875-0.125-2.775
		c0-0.6,0.008-1.167,0.025-1.7c0.016-0.533,0.023-1.008,0.023-1.425c0-0.434-0.016-0.779-0.049-1.038s-0.109-0.388-0.225-0.388
		c-0.518,0.134-1,0.521-1.451,1.163c-0.449,0.642-0.879,1.396-1.287,2.263s-0.812,1.792-1.212,2.775
		c-0.4,0.983-0.805,1.892-1.213,2.725s-0.829,1.521-1.262,2.062c-0.434,0.541-0.9,0.812-1.4,0.812c-0.4,0-0.817-0.046-1.25-0.138
		c-0.434-0.092-0.842-0.208-1.225-0.35c-0.384-0.141-0.721-0.304-1.013-0.487c-0.292-0.183-0.496-0.375-0.612-0.575
		c0.083-0.233,0.216-0.566,0.4-1c0.183-0.433,0.383-0.925,0.6-1.475c0.216-0.55,0.441-1.129,0.675-1.737s0.446-1.2,0.638-1.775
		c0.191-0.575,0.35-1.108,0.475-1.6c0.125-0.491,0.188-0.888,0.188-1.188c0-0.7-0.071-1.158-0.213-1.375
		c-0.142-0.216-0.237-0.325-0.287-0.325c-0.084,0-0.229,0.075-0.438,0.225c-0.209,0.15-0.43,0.317-0.663,0.5
		c-0.146,0.114-0.267,0.219-0.396,0.326c-0.028,0.181-0.062,0.358-0.116,0.524c-0.125,0.384-0.271,0.7-0.438,0.95
		c-1.333,2-2.896,3.783-4.688,5.35c-1.792,1.567-3.746,2.9-5.862,4c-0.884,0.467-1.788,0.821-2.712,1.062
		c-0.925,0.242-1.83,0.363-2.713,0.363s-1.729-0.117-2.537-0.35c-0.809-0.233-1.546-0.592-2.213-1.075
		c-0.4-0.3-0.679-0.608-0.837-0.925c-0.159-0.316-0.237-0.642-0.237-0.975c0-0.333,0.05-0.667,0.15-1c0.1-0.333,0.208-0.667,0.325-1
		c-1.184,0.784-2.413,1.325-3.688,1.625c-1.275,0.3-2.459,0.438-3.55,0.413c-1.092-0.025-2.017-0.163-2.775-0.413
		c-0.759-0.25-1.221-0.533-1.388-0.85c-0.657-1.272-1.118-2.479-1.406-3.628c-0.055,0.052-0.102,0.102-0.157,0.154
		c-0.825,0.783-1.704,1.559-2.637,2.325c-0.934,0.767-1.863,1.455-2.788,2.062c-0.925,0.609-1.812,1.1-2.663,1.475
		s-1.6,0.562-2.25,0.562c-0.15,0-0.388-0.05-0.712-0.15c-0.325-0.1-0.7-0.229-1.125-0.388c-0.425-0.158-0.875-0.337-1.35-0.538
		c-0.475-0.2-0.938-0.4-1.388-0.6c-0.45-0.2-0.858-0.388-1.225-0.562c-0.367-0.175-0.659-0.329-0.875-0.463
		c-0.634-0.366-1.217-0.783-1.75-1.25c-0.534-0.466-0.988-0.987-1.363-1.562c-0.365-0.559-0.647-1.171-0.854-1.833
		c-0.495,0.65-1.009,1.293-1.557,1.921c-0.684,0.783-1.387,1.525-2.112,2.225c-0.725,0.7-1.438,1.317-2.138,1.85
		c-0.7,0.534-1.371,0.958-2.012,1.275c-0.642,0.316-1.221,0.475-1.738,0.475c-0.434,0-0.979-0.125-1.637-0.375
		c-0.659-0.25-1.363-0.575-2.113-0.975c-0.75-0.4-1.5-0.841-2.25-1.325s-1.425-0.966-2.025-1.45c-0.6-0.483-1.091-0.933-1.475-1.35
		c-0.383-0.416-0.575-0.75-0.575-1c0-0.547,0.019-1.092,0.048-1.636c-0.438,0.342-0.875,0.673-1.31,0.986
		c-0.742,0.534-1.442,1.009-2.1,1.425c-0.659,0.417-1.188,0.75-1.587,1c-0.317,0.2-0.713,0.467-1.188,0.8
		c-0.475,0.333-1.009,0.684-1.6,1.05c-0.592,0.367-1.217,0.738-1.875,1.113c-0.659,0.375-1.312,0.696-1.962,0.962
		c-0.65,0.267-1.288,0.458-1.913,0.575c-0.625,0.116-1.196,0.116-1.712,0c-0.65-0.15-1.363-0.413-2.138-0.788
		s-1.479-0.779-2.112-1.212c-0.7-0.483-1.305-0.925-1.812-1.325c-0.509-0.4-0.921-0.812-1.238-1.237
		c-0.316-0.425-0.55-0.888-0.7-1.388c-0.15-0.5-0.225-1.091-0.225-1.775c0-1.433,0.142-2.771,0.425-4.013
		c0.284-1.241,0.7-2.425,1.25-3.55c0.55-1.125,1.229-2.196,2.038-3.212c0.808-1.017,1.737-2.017,2.788-3
		c0.5-0.467,1.083-0.967,1.75-1.5c0.667-0.533,1.371-1.029,2.112-1.488c0.742-0.458,1.496-0.837,2.263-1.137
		c0.766-0.3,1.5-0.45,2.2-0.45c0.816,0,1.554,0.154,2.213,0.462c0.658,0.309,1.216,0.725,1.675,1.25
		c0.458,0.525,0.808,1.129,1.05,1.812c0.242,0.684,0.363,1.4,0.363,2.15c0,0.734-0.1,1.379-0.3,1.938
		c-0.2,0.559-0.471,1.075-0.812,1.55s-0.733,0.929-1.175,1.362c-0.442,0.434-0.904,0.9-1.388,1.4
		c-0.233-0.033-0.404-0.129-0.512-0.287c-0.109-0.158-0.221-0.321-0.337-0.488l-2.525-3.575c-0.684,0.35-1.337,0.829-1.962,1.438
		s-1.179,1.275-1.663,2c-0.483,0.725-0.871,1.487-1.162,2.287c-0.292,0.8-0.438,1.567-0.438,2.3c0,0.383,0.021,0.784,0.062,1.2
		c0.041,0.417,0.112,0.825,0.212,1.225s0.233,0.779,0.4,1.138c0.167,0.358,0.375,0.671,0.625,0.938
		c0.9-0.267,1.825-0.579,2.775-0.938c0.95-0.358,2.017-0.846,3.2-1.462c1.183-0.617,2.538-1.408,4.062-2.375
		c1.517-0.961,3.285-2.188,5.304-3.676c0.22-0.884,0.468-1.763,0.746-2.636c0.558-1.758,1.208-3.496,1.95-5.213
		c0.742-1.716,1.529-3.404,2.363-5.062c0.833-1.658,1.688-3.287,2.562-4.887s1.721-3.158,2.537-4.675
		c0.45-0.833,1.029-1.766,1.738-2.8c0.708-1.033,1.508-2.008,2.4-2.925s1.85-1.684,2.875-2.3c1.025-0.616,2.071-0.925,3.138-0.925
		c0.433,0,0.883,0.159,1.35,0.475s0.913,0.712,1.338,1.188c0.425,0.475,0.829,1,1.212,1.575c0.383,0.575,0.716,1.125,1,1.65
		c0.283,0.525,0.508,0.979,0.675,1.363s0.25,0.633,0.25,0.75c-0.034,1.75-0.371,3.562-1.012,5.438
		c-0.642,1.875-1.488,3.742-2.538,5.6c-1.05,1.858-2.259,3.671-3.625,5.438c-1.367,1.767-2.779,3.421-4.238,4.962
		s-2.912,2.934-4.362,4.175c-1.45,1.242-2.8,2.263-4.05,3.062c0,0.134,0.033,0.417,0.1,0.85c0.066,0.434,0.175,0.884,0.325,1.35
		c0.15,0.467,0.35,0.887,0.6,1.262s0.55,0.562,0.9,0.562c0.466,0,0.991-0.141,1.575-0.425c0.583-0.283,1.204-0.658,1.862-1.125
		c0.658-0.466,1.337-1.008,2.038-1.625c0.7-0.616,1.396-1.25,2.087-1.9c0.691-0.65,1.379-1.3,2.062-1.95
		c0.48-0.457,0.932-0.88,1.371-1.287c0.288-0.731,0.609-1.458,1.003-2.175c0.617-1.125,1.35-2.191,2.2-3.2
		c0.85-1.008,1.766-1.9,2.75-2.675c0.983-0.775,2.012-1.388,3.087-1.837c1.075-0.45,2.154-0.675,3.237-0.675
		c1.717,0,3.021,0.4,3.913,1.2s1.337,1.983,1.337,3.55c0,0.934-0.162,1.784-0.487,2.55s-0.763,1.471-1.312,2.112
		c-0.55,0.642-1.188,1.217-1.913,1.725c-0.725,0.509-1.483,0.975-2.275,1.4c-0.792,0.425-1.596,0.809-2.413,1.15
		c-0.817,0.342-1.583,0.663-2.3,0.963c-0.267,0.45-0.467,0.858-0.6,1.225c-0.134,0.367-0.2,0.859-0.2,1.475
		c0,0.65,0.15,1.163,0.45,1.538s0.925,0.562,1.875,0.562s1.95-0.254,3-0.763c1.05-0.508,2.079-1.137,3.087-1.887
		s1.971-1.546,2.888-2.388c0.917-0.841,1.716-1.604,2.4-2.288c0.183-0.183,0.429-0.441,0.737-0.775
		c0.202-0.218,0.445-0.431,0.678-0.646c0.03-0.059,0.054-0.121,0.084-0.179c0.533-1.017,1.2-1.958,2-2.825
		c1.216-1.3,2.446-2.329,3.688-3.087s2.504-1.2,3.788-1.325c1.283-0.125,2.608,0.104,3.975,0.688
		c1.366,0.583,2.783,1.559,4.25,2.925c0.183-0.2,0.413-0.375,0.688-0.525c0.275-0.15,0.566-0.237,0.875-0.262
		c0.308-0.025,0.629,0.029,0.962,0.163c0.333,0.133,0.65,0.375,0.95,0.725c0.533,0.634,0.941,1.146,1.225,1.538
		c0.283,0.392,0.438,0.775,0.463,1.15c0.025,0.375-0.084,0.792-0.325,1.25c-0.242,0.459-0.612,1.071-1.112,1.838
		c-0.917,1.367-1.671,2.671-2.263,3.912c-0.592,1.242-1.029,2.546-1.312,3.913c-0.134,0.617,0.038,0.9,0.513,0.85
		c0.475-0.05,1.137-0.325,1.987-0.825s1.825-1.17,2.925-2.012c1.1-0.841,2.217-1.742,3.35-2.7c1.133-0.958,2.221-1.92,3.263-2.887
		c0.941-0.874,1.75-1.661,2.439-2.372c0.076-0.107,0.141-0.204,0.223-0.316c0.433-0.592,0.912-1.154,1.438-1.688
		c0.525-0.533,1.075-0.983,1.65-1.35c0.575-0.367,1.154-0.55,1.737-0.55c0.383,0,0.742,0.109,1.075,0.325
		c0.333,0.217,0.629,0.487,0.887,0.812s0.475,0.679,0.65,1.062c0.175,0.384,0.287,0.75,0.337,1.1
		c0.333-0.55,0.775-1.121,1.324-1.712c0.551-0.592,1.135-1.129,1.75-1.613c0.617-0.483,1.221-0.879,1.812-1.188
		c0.592-0.308,1.096-0.462,1.514-0.462c0.75,0,1.453,0.208,2.111,0.625c0.658,0.417,1.238,0.938,1.738,1.562s0.896,1.309,1.188,2.05
		c0.291,0.742,0.438,1.43,0.438,2.062c0,0.617-0.062,1.234-0.188,1.85c-0.125,0.617-0.262,1.246-0.412,1.888
		s-0.287,1.292-0.412,1.95c-0.125,0.659-0.188,1.338-0.188,2.038c0,0.517,0.066,0.888,0.199,1.113
		c0.133,0.225,0.316,0.337,0.551,0.337c0.332,0,0.773-0.188,1.324-0.562s1.166-0.863,1.85-1.462c0.684-0.6,1.4-1.279,2.15-2.038
		s1.479-1.517,2.188-2.275s1.379-1.488,2.012-2.188c0.625-0.69,1.15-1.28,1.58-1.776c-0.153-0.417-0.312-0.833-0.462-1.251
		c-0.002-0.005-0.005-0.011-0.007-0.016c0.328-2.234,0.556-4.489,0.607-6.782c0.145-6.421-6.834-8.939-11.463-6.202
		c-0.966-5.25-8.459-7.52-12.84-3.727c-2.814,2.437-5.198,5.268-7.415,8.245c-0.208,0.048-0.417,0.093-0.624,0.145
		c-1.732-2.197-4.665-3.424-7.466-2.916c-0.014-0.01-0.026-0.021-0.041-0.031c-1.368-1.011-3.524-1.918-5.273-1.75
		c-1.779,0.172-3.238,0.637-4.503,1.33c0.314-1.786,0.601-3.583,0.856-5.394c0.043-0.257,0.068-0.514,0.085-0.77
		c0.264-3.104-0.594-5.979-3.532-7.7c-0.413-0.242-0.869-0.427-1.342-0.583c-2.134-1.013-4.646-0.947-6.858,0.904
		c-0.001,0-0.002,0.001-0.003,0.002c-0.301,0.252-0.597,0.529-0.885,0.85c-1.394,1.549-2.783,3.088-4.176,4.613
		c0.511-1.3,0.985-2.621,1.378-3.983C78.942,8.301,73,2.38,67.759,4.491c-1.836-3.68-6.372-6.043-10.401-3.295
		c-3.885,2.65-7.483,5.663-10.929,8.864c-2.249-0.684-4.877-0.325-7.256,1.708c-1.081,0.924-2.176,1.865-3.278,2.777
		c-2.024-0.865-4.327-0.875-6.306,0.562c-2.125,1.543-4.151,3.116-5.539,5.404c-0.03,0.05-0.073,0.133-0.121,0.229
		c-3.356,0.973-6.705,1.91-10.031,2.994c-0.214,0.07-0.43,0.142-0.646,0.215c-0.571,0.19-1.143,0.368-1.712,0.57
		c0.005,0.012,0.01,0.023,0.015,0.035c-0.598,0.226-1.199,0.464-1.807,0.721c-4.956,2.095-4.507,8.165-1.492,11.619
		c-3.662,4.008-6.549,8.737-8.014,14.851c-1.619,6.756,5.124,11.246,11.017,8.47c0.996-0.469,1.965-0.971,2.922-1.486
		c-0.456,5.611,5.577,11.505,11.078,7.486c3.641-2.66,7.003-5.608,10.204-8.723c1.051,1.35,2.5,2.395,4.018,2.812
		c2.804,0.771,5.203-0.087,6.969-1.818c-2.255,6.237,4.614,12.562,10.81,9.062c3.672-2.074,6.884-4.618,9.774-7.482
		c0.895,4.58,5.649,7.728,10.892,5.094c1.71-0.859,3.295-1.834,4.787-2.905c1.033-0.075,2.098-0.341,3.157-0.856
		c0.38-0.185,0.766-0.36,1.148-0.539c1.064,4.404,7.293,6.367,10.909,4.022c0.353-0.229,0.684-0.474,1.027-0.709
		c-0.013,0.081-0.032,0.159-0.045,0.239c-0.917,5.85,4.951,12.563,11.018,8.47c3.585-2.419,6.478-5.262,8.869-8.54
		c1.502,0.171,3.06-0.059,4.464-0.793c0.164-0.086,0.317-0.178,0.477-0.267c2.508,2.729,6.828,3.411,10.542,0.26
		c0.312-0.264,0.584-0.553,0.853-0.844c4.331,3.604,10.594,2.119,12.396-3.417C148.634,55.883,146.425,51.849,145.231,48.768z"/>
	<path fill="#FFFFFF" d="M56.659,23.322c0.367-0.816,0.767-1.667,1.2-2.55c0.433-0.883,0.841-1.763,1.225-2.638
		c0.383-0.875,0.712-1.741,0.987-2.6c0.275-0.858,0.438-1.67,0.487-2.438c-0.167,0.067-0.333,0.117-0.5,0.15
		c-0.167,0.034-0.292,0.109-0.375,0.225c-1.15,1.384-2.262,2.85-3.337,4.4c-1.075,1.55-2.146,3.225-3.212,5.025
		c-1.067,1.8-2.154,3.746-3.263,5.837c-1.108,2.092-2.271,4.354-3.487,6.788c0.017,0.184,0.091,0.275,0.225,0.275
		c0.616-0.383,1.258-0.871,1.925-1.462s1.321-1.242,1.962-1.95c0.642-0.708,1.271-1.458,1.888-2.25
		c0.616-0.792,1.196-1.587,1.737-2.388c0.542-0.8,1.029-1.579,1.463-2.337C56.018,24.651,56.375,23.956,56.659,23.322z"/>
	<path fill="#FFFFFF" d="M69.108,32.997c-0.483,0.334-0.917,0.725-1.3,1.175c-0.384,0.45-0.713,0.925-0.988,1.425
		s-0.479,0.958-0.612,1.375c0.516-0.05,1.016-0.216,1.5-0.5c0.483-0.283,0.938-0.633,1.362-1.05c0.425-0.417,0.808-0.875,1.15-1.375
		s0.629-0.983,0.863-1.45c-0.083-0.033-0.159-0.075-0.225-0.125c-0.067-0.05-0.134-0.075-0.2-0.075
		C70.108,32.464,69.592,32.664,69.108,32.997z"/>
</g>
</svg>
